<?xml version="1.0" encoding="UTF-8"?><svg xmlns="http://www.w3.org/2000/svg" viewBox="0 0 1599.95 293.89"><defs><style>.e{fill:#fe0f17;}.e,.f,.g,.h,.i,.j,.k,.l,.m,.n,.o,.p{stroke-miterlimit:10;}.e,.n{stroke:#fe0f17;}.f,.g,.q,.k,.m,.n,.p{fill:#282828;}.f,.j{stroke:#b200dd;}.g,.h{stroke:#02ae35;}.h{fill:#02ae35;}.i{fill:#fea31e;}.i,.m{stroke:#fea31e;}.r{fill:#1f2937;}.j{fill:#b200dd;}.k,.l{stroke:#0149fd;}.l{fill:#0149fd;}.o{fill:#ffff28;}.o,.p{stroke:#ffff28;}</style></defs><g id="a"/><g id="b"><g id="c"><g><g><path class="q" d="M123.59,0h16.78c.12,.06,.23,.15,.35,.18,5.37,1.42,8.11,4.89,8.11,10.35,0,32.66,0,65.33-.02,97.99,0,.81-.21,1.68-.55,2.42-3.19,6.78-6.52,13.49-9.62,20.3-1.16,2.56-2.73,4.4-5.46,5.15h-2.4c-2.72-.77-4.29-2.6-5.45-5.16-3.04-6.7-6.32-13.28-9.43-19.95-.45-.96-.72-2.11-.72-3.17-.04-25.38-.03-50.76-.03-76.14,0-7.19,0-14.38,0-21.56,0-3.34,1.06-6.26,3.82-8.23,1.36-.98,3.08-1.47,4.63-2.18Zm-3.88,85.94h24.51c.03-.47,.07-.82,.07-1.16,0-14.51-.01-29.02,.03-43.53,0-1.18-.46-1.39-1.49-1.39-7.28,0-14.55-.04-21.83-.06-.43,0-.86,.05-1.3,.08v46.06Zm1.4,25.8c.19,.46,.32,.83,.49,1.18,2.74,5.72,5.49,11.43,8.21,17.15,.46,.98,.98,1.77,2.23,1.75,1.19-.02,1.67-.79,2.11-1.72,2.69-5.69,5.41-11.37,8.11-17.05,.18-.39,.34-.79,.57-1.31h-21.73Zm-1.39-97.53h24.55c0-1.74,.13-3.39-.03-5.01-.27-2.67-2.49-4.6-5.15-4.61-4.7-.03-9.4-.05-14.1-.04-2.68,0-4.86,1.72-5.22,4.36-.24,1.73-.04,3.51-.04,5.3Zm-.01,92.74h24.47v-8.32h-24.47v8.32Zm24.49-79.63v-8.3h-24.47v8.3h24.47Z"/><path class="e" d="M119.71,85.94V39.87c.44-.03,.87-.08,1.3-.08,7.28,.02,14.55,.06,21.83,.06,1.02,0,1.49,.21,1.49,1.39-.04,14.51-.02,29.02-.03,43.53,0,.35-.04,.69-.07,1.16h-24.51Zm18.96-22.94c-.14-1.59-.18-3.19-.43-4.76-.43-2.82-1.16-5.57-2.91-7.9-2.02-2.69-4.74-2.7-6.68,.06-.8,1.14-1.46,2.45-1.9,3.77-1.71,5.08-1.83,10.28-.59,15.47,.43,1.83,1.12,3.67,2.07,5.28,2.13,3.61,5.34,3.55,7.58-.02,.45-.71,.82-1.48,1.12-2.26,1.22-3.09,1.68-6.32,1.73-9.64Z"/><path class="e" d="M121.11,111.74h21.73c-.23,.53-.39,.93-.57,1.31-2.7,5.68-5.42,11.36-8.11,17.05-.44,.93-.93,1.7-2.11,1.72-1.25,.02-1.77-.77-2.23-1.75-2.73-5.72-5.47-11.43-8.21-17.15-.17-.35-.3-.72-.49-1.18Z"/><path class="e" d="M119.72,14.21c0-1.79-.19-3.57,.04-5.3,.36-2.64,2.55-4.36,5.22-4.36,4.7,0,9.4,0,14.1,.04,2.66,.02,4.89,1.95,5.15,4.61,.16,1.62,.03,3.26,.03,5.01h-24.55Z"/><path class="e" d="M119.71,106.95v-8.32h24.47v8.32h-24.47Z"/><path class="e" d="M144.2,27.32h-24.47v-8.3h24.47v8.3Z"/><path class="n" d="M138.66,62.99c-.05,3.32-.51,6.55-1.73,9.64-.31,.78-.68,1.55-1.12,2.26-2.25,3.57-5.45,3.64-7.58,.02-.95-1.61-1.64-3.45-2.07-5.28-1.23-5.19-1.11-10.39,.59-15.47,.44-1.32,1.1-2.63,1.9-3.77,1.93-2.75,4.66-2.75,6.68-.06,1.76,2.33,2.48,5.08,2.91,7.9,.24,1.57,.29,3.17,.43,4.76Z"/></g><g><path class="q" d="M.52,80.75l8.39-14.54c.11-.07,.24-.12,.33-.21,3.92-3.94,8.29-4.58,13.02-1.84,28.29,16.33,56.58,32.66,84.85,49.01,.7,.41,1.36,1.02,1.82,1.69,4.27,6.15,8.42,12.39,12.78,18.48,1.64,2.29,2.44,4.56,1.73,7.3l-1.2,2.08c-2.03,1.97-4.4,2.42-7.19,2.14-7.32-.72-14.66-1.17-21.99-1.8-1.06-.09-2.19-.43-3.11-.96-22-12.66-43.98-25.35-65.96-38.04-6.23-3.59-12.45-7.19-18.68-10.78-2.9-1.67-4.89-4.05-5.22-7.42-.17-1.67,.27-3.4,.43-5.1Zm72.48,46.33l12.26-21.23c-.39-.26-.67-.47-.97-.64-12.56-7.26-25.14-14.5-37.68-21.79-1.02-.59-1.44-.3-1.95,.59-3.64,6.3-7.31,12.58-10.97,18.88-.22,.37-.39,.77-.58,1.16l39.89,23.03Zm23.04,11.69c.5,.07,.88,.14,1.27,.17,6.32,.49,12.64,.96,18.96,1.46,1.08,.09,2.02,.04,2.63-1.06,.57-1.04,.15-1.84-.43-2.69-3.58-5.18-7.14-10.37-10.71-15.55-.24-.35-.51-.69-.85-1.16l-10.86,18.82ZM10.89,91.2l12.27-21.26c-1.51-.87-2.87-1.81-4.35-2.48-2.44-1.1-5.22-.14-6.57,2.15-2.38,4.05-4.74,8.12-7.08,12.19-1.34,2.32-.94,5.07,1.16,6.7,1.38,1.07,3.02,1.79,4.56,2.69Zm80.31,46.38l12.24-21.19-7.21-4.16-12.24,21.19,7.21,4.16Zm-56.71-61.02l-7.19-4.15-12.23,21.19,7.19,4.15,12.23-21.19Z"/><path class="j" d="M73.01,127.07l-39.89-23.03c.2-.4,.37-.79,.58-1.16,3.66-6.29,7.33-12.57,10.97-18.88,.51-.89,.92-1.19,1.95-.59,12.55,7.29,25.12,14.53,37.68,21.79,.3,.17,.58,.38,.97,.64l-12.26,21.23Zm-10.39-27.89c-1.44-.68-2.85-1.43-4.34-2.01-2.66-1.04-5.4-1.78-8.3-1.43-3.34,.41-4.71,2.76-3.29,5.81,.59,1.27,1.39,2.48,2.32,3.53,3.55,4.02,7.99,6.72,13.1,8.25,1.8,.54,3.74,.86,5.61,.84,4.2-.04,5.74-2.85,3.77-6.58-.39-.74-.87-1.44-1.39-2.1-2.07-2.6-4.64-4.61-7.49-6.32Z"/><path class="j" d="M96.05,138.76l10.86-18.82c.34,.46,.61,.8,.85,1.16,3.57,5.18,7.13,10.37,10.71,15.55,.58,.85,1.01,1.65,.43,2.69-.61,1.1-1.55,1.14-2.63,1.06-6.32-.5-12.64-.98-18.96-1.46-.39-.03-.77-.1-1.27-.17Z"/><path class="j" d="M10.89,91.2c-1.55-.89-3.19-1.62-4.56-2.69-2.11-1.64-2.5-4.38-1.16-6.7,2.34-4.07,4.7-8.14,7.08-12.19,1.35-2.3,4.13-3.26,6.57-2.15,1.48,.67,2.84,1.6,4.35,2.48l-12.27,21.26Z"/><path class="j" d="M91.2,137.58l-7.21-4.16,12.24-21.19,7.21,4.16-12.24,21.19Z"/><path class="j" d="M34.49,76.55l-12.23,21.19-7.19-4.15,12.23-21.19,7.19,4.15Z"/><path class="f" d="M62.61,99.19c2.85,1.71,5.42,3.72,7.49,6.32,.52,.66,1,1.36,1.39,2.1,1.97,3.73,.42,6.54-3.77,6.58-1.87,.02-3.81-.31-5.61-.84-5.11-1.52-9.55-4.23-13.1-8.25-.92-1.05-1.73-2.27-2.32-3.53-1.42-3.05-.05-5.41,3.29-5.81,2.9-.35,5.64,.39,8.3,1.43,1.48,.58,2.89,1.34,4.34,2.01Z"/></g><g><path class="q" d="M8.92,227.69L.53,213.16c0-.13,.02-.27-.02-.4-1.45-5.36,.18-9.46,4.91-12.2,28.28-16.34,56.57-32.67,84.87-48.98,.7-.4,1.56-.66,2.37-.73,7.46-.62,14.94-1.1,22.39-1.82,2.8-.27,5.17,.17,7.19,2.16l1.2,2.08c.69,2.74-.1,5.02-1.74,7.3-4.28,5.98-8.34,12.11-12.56,18.14-.61,.87-1.47,1.68-2.39,2.21-21.96,12.72-43.94,25.41-65.92,38.1-6.23,3.59-12.45,7.18-18.67,10.78-2.89,1.68-5.95,2.21-9.04,.81-1.53-.69-2.81-1.93-4.21-2.92Zm76.36-39.61l-12.26-21.23c-.42,.21-.74,.35-1.04,.52-12.57,7.25-25.13,14.52-37.71,21.74-1.03,.59-.97,1.1-.46,1.98,3.64,6.3,7.24,12.62,10.86,18.93,.21,.37,.47,.72,.72,1.09l39.89-23.03Zm21.64-14.11c.31-.4,.56-.69,.78-1.01,3.58-5.23,7.15-10.47,10.75-15.69,.61-.89,1.05-1.73,.4-2.81-.61-1.02-1.52-1.05-2.55-.97-6.27,.51-12.55,1-18.82,1.5-.43,.03-.85,.09-1.43,.16l10.86,18.82ZM23.16,223.94l-12.27-21.26c-1.51,.87-3,1.58-4.32,2.53-2.18,1.56-2.74,4.45-1.42,6.77,2.32,4.09,4.66,8.16,7.02,12.23,1.34,2.32,3.92,3.35,6.39,2.34,1.61-.66,3.06-1.72,4.61-2.61Zm80.32-46.36l-12.24-21.19-7.21,4.16,12.24,21.19,7.21-4.16Zm-81.21,18.6l-7.19,4.15,12.23,21.19,7.19-4.15-12.23-21.19Z"/><path class="l" d="M85.28,188.08l-39.89,23.03c-.24-.37-.5-.71-.72-1.09-3.62-6.31-7.22-12.63-10.86-18.93-.51-.89-.57-1.39,.46-1.98,12.58-7.22,25.14-14.49,37.71-21.74,.3-.17,.62-.31,1.04-.52l12.26,21.23Zm-29.35-4.94c-1.31,.91-2.67,1.75-3.91,2.75-2.23,1.78-4.24,3.79-5.39,6.47-1.32,3.09,.04,5.46,3.39,5.75,1.39,.12,2.85,.04,4.22-.24,5.26-1.06,9.82-3.56,13.69-7.22,1.36-1.29,2.62-2.81,3.54-4.44,2.06-3.65,.41-6.4-3.81-6.56-.84-.03-1.69,.03-2.52,.16-3.29,.49-6.32,1.71-9.22,3.32Z"/><path class="l" d="M106.93,173.97l-10.86-18.82c.57-.06,1-.13,1.43-.16,6.27-.5,12.55-.99,18.82-1.5,1.02-.08,1.93-.05,2.55,.97,.65,1.07,.21,1.92-.4,2.81-3.59,5.22-7.16,10.46-10.75,15.69-.22,.32-.48,.62-.78,1.01Z"/><path class="l" d="M23.16,223.94c-1.55,.89-3,1.95-4.61,2.61-2.47,1.01-5.04-.03-6.39-2.34-2.36-4.07-4.7-8.14-7.02-12.23-1.31-2.31-.76-5.2,1.42-6.77,1.32-.95,2.81-1.66,4.32-2.53l12.27,21.26Z"/><path class="l" d="M103.48,177.58l-7.21,4.16-12.24-21.19,7.21-4.16,12.24,21.19Z"/><path class="l" d="M22.27,196.18l12.23,21.19-7.19,4.15-12.23-21.19,7.19-4.15Z"/><path class="k" d="M55.94,183.14c2.9-1.61,5.93-2.83,9.22-3.32,.83-.12,1.68-.19,2.52-.16,4.22,.16,5.87,2.9,3.81,6.56-.92,1.63-2.17,3.15-3.54,4.44-3.88,3.66-8.44,6.16-13.69,7.22-1.37,.28-2.83,.37-4.22,.24-3.35-.3-4.71-2.66-3.39-5.75,1.14-2.69,3.16-4.69,5.39-6.47,1.24-.99,2.6-1.84,3.91-2.75Z"/></g><g><path class="q" d="M140.38,293.89h-16.78c-.12-.06-.23-.15-.35-.18-5.37-1.42-8.11-4.89-8.11-10.35,0-32.66,0-65.33,.02-97.99,0-.81,.21-1.68,.55-2.42,3.19-6.78,6.52-13.49,9.62-20.3,1.16-2.56,2.73-4.4,5.46-5.15h2.4c2.72,.77,4.29,2.6,5.45,5.16,3.04,6.7,6.32,13.28,9.43,19.95,.45,.96,.72,2.11,.72,3.17,.04,25.38,.03,50.76,.03,76.14,0,7.19,0,14.38,0,21.56,0,3.34-1.06,6.26-3.82,8.23-1.36,.98-3.08,1.47-4.63,2.18Zm3.88-85.94h-24.51c-.03,.47-.07,.82-.07,1.16,0,14.51,.01,29.02-.03,43.53,0,1.18,.46,1.39,1.49,1.39,7.28,0,14.55,.04,21.83,.06,.43,0,.86-.05,1.3-.08v-46.06Zm-1.4-25.8c-.19-.46-.32-.83-.49-1.18-2.74-5.72-5.49-11.43-8.21-17.15-.46-.98-.98-1.77-2.23-1.75-1.19,.02-1.67,.79-2.11,1.72-2.69,5.69-5.41,11.37-8.11,17.05-.18,.39-.34,.79-.57,1.31h21.73Zm1.39,97.53h-24.55c0,1.74-.13,3.39,.03,5.01,.27,2.67,2.49,4.6,5.15,4.61,4.7,.03,9.4,.05,14.1,.04,2.68,0,4.86-1.72,5.22-4.36,.24-1.73,.04-3.51,.04-5.3Zm.01-92.74h-24.47v8.32h24.47v-8.32Zm-24.49,79.63v8.3h24.47v-8.3h-24.47Z"/><path class="h" d="M144.26,207.96v46.06c-.44,.03-.87,.08-1.3,.08-7.28-.02-14.55-.06-21.83-.06-1.02,0-1.49-.21-1.49-1.39,.04-14.51,.02-29.02,.03-43.53,0-.35,.04-.69,.07-1.16h24.51Zm-18.96,22.94c.14,1.59,.18,3.19,.43,4.76,.43,2.82,1.16,5.57,2.91,7.9,2.02,2.69,4.74,2.7,6.68-.06,.8-1.14,1.46-2.45,1.9-3.77,1.71-5.08,1.83-10.28,.59-15.47-.43-1.83-1.12-3.67-2.07-5.28-2.13-3.61-5.34-3.55-7.58,.02-.45,.71-.82,1.48-1.12,2.26-1.22,3.09-1.68,6.32-1.73,9.64Z"/><path class="h" d="M142.86,182.16h-21.73c.23-.53,.39-.93,.57-1.31,2.7-5.68,5.42-11.36,8.11-17.05,.44-.93,.93-1.7,2.11-1.72,1.25-.02,1.77,.77,2.23,1.75,2.73,5.72,5.47,11.43,8.21,17.15,.17,.35,.3,.72,.49,1.18Z"/><path class="h" d="M144.25,279.69c0,1.79,.19,3.57-.04,5.3-.36,2.64-2.55,4.36-5.22,4.36-4.7,0-9.4,0-14.1-.04-2.66-.02-4.89-1.95-5.15-4.61-.16-1.62-.03-3.26-.03-5.01h24.55Z"/><path class="h" d="M144.26,186.95v8.32h-24.47v-8.32h24.47Z"/><path class="h" d="M119.77,266.57h24.47v8.3h-24.47v-8.3Z"/><path class="g" d="M125.3,230.9c.05-3.32,.51-6.55,1.73-9.64,.31-.78,.68-1.55,1.12-2.26,2.25-3.57,5.45-3.64,7.58-.02,.95,1.61,1.64,3.45,2.07,5.28,1.23,5.19,1.11,10.39-.59,15.47-.44,1.32-1.1,2.63-1.9,3.77-1.93,2.75-4.66,2.75-6.68,.06-1.76-2.33-2.48-5.08-2.91-7.9-.24-1.57-.29-3.17-.43-4.76Z"/></g><g><path class="q" d="M263.44,213.15l-8.39,14.54c-.11,.07-.24,.12-.33,.21-3.92,3.94-8.29,4.58-13.02,1.84-28.29-16.33-56.58-32.66-84.85-49.01-.7-.41-1.36-1.02-1.82-1.69-4.27-6.15-8.42-12.39-12.78-18.48-1.64-2.29-2.44-4.56-1.73-7.3l1.2-2.08c2.03-1.97,4.4-2.42,7.19-2.14,7.32,.72,14.66,1.17,21.99,1.8,1.06,.09,2.19,.43,3.11,.96,22,12.66,43.98,25.35,65.96,38.04,6.23,3.59,12.45,7.19,18.68,10.78,2.9,1.67,4.89,4.05,5.22,7.42,.17,1.67-.27,3.4-.43,5.1Zm-72.48-46.33l-12.26,21.23c.39,.26,.67,.47,.97,.64,12.56,7.26,25.14,14.5,37.68,21.79,1.02,.59,1.44,.3,1.95-.59,3.64-6.3,7.31-12.58,10.97-18.88,.22-.37,.39-.77,.58-1.16l-39.89-23.03Zm-23.04-11.69c-.5-.07-.88-.14-1.27-.17-6.32-.49-12.64-.96-18.96-1.46-1.08-.09-2.02-.04-2.63,1.06-.57,1.04-.15,1.84,.43,2.69,3.58,5.18,7.14,10.37,10.71,15.55,.24,.35,.51,.69,.85,1.16l10.86-18.82Zm85.16,47.56l-12.27,21.26c1.51,.87,2.87,1.81,4.35,2.48,2.44,1.1,5.22,.14,6.57-2.15,2.38-4.05,4.74-8.12,7.08-12.19,1.34-2.32,.94-5.07-1.16-6.7-1.38-1.07-3.02-1.79-4.56-2.69Zm-80.31-46.38l-12.24,21.19,7.21,4.16,12.24-21.19-7.21-4.16Zm56.71,61.02l7.19,4.15,12.23-21.19-7.19-4.15-12.23,21.19Z"/><path class="o" d="M190.96,166.82l39.89,23.03c-.2,.4-.37,.79-.58,1.16-3.66,6.29-7.33,12.57-10.97,18.88-.51,.89-.92,1.19-1.95,.59-12.55-7.29-25.12-14.53-37.68-21.79-.3-.17-.58-.38-.97-.64l12.26-21.23Zm10.39,27.89c1.44,.68,2.85,1.43,4.34,2.01,2.66,1.04,5.4,1.78,8.3,1.43,3.34-.41,4.71-2.76,3.29-5.81-.59-1.27-1.39-2.48-2.32-3.53-3.55-4.02-7.99-6.72-13.1-8.25-1.8-.54-3.74-.86-5.61-.84-4.2,.04-5.74,2.85-3.77,6.58,.39,.74,.87,1.44,1.39,2.1,2.07,2.6,4.64,4.61,7.49,6.32Z"/><path class="o" d="M167.91,155.14l-10.86,18.82c-.34-.46-.61-.8-.85-1.16-3.57-5.18-7.13-10.37-10.71-15.55-.58-.85-1.01-1.65-.43-2.69,.61-1.1,1.55-1.14,2.63-1.06,6.32,.5,12.64,.98,18.96,1.46,.39,.03,.77,.1,1.27,.17Z"/><path class="o" d="M253.07,202.7c1.55,.89,3.19,1.62,4.56,2.69,2.11,1.64,2.5,4.38,1.16,6.7-2.34,4.07-4.7,8.14-7.08,12.19-1.35,2.3-4.13,3.26-6.57,2.15-1.48-.67-2.84-1.6-4.35-2.48l12.27-21.26Z"/><path class="o" d="M172.76,156.32l7.21,4.16-12.24,21.19-7.21-4.16,12.24-21.19Z"/><path class="o" d="M229.47,217.34l12.23-21.19,7.19,4.15-12.23,21.19-7.19-4.15Z"/><path class="p" d="M201.35,194.71c-2.85-1.71-5.42-3.72-7.49-6.32-.52-.66-1-1.36-1.39-2.1-1.97-3.73-.42-6.54,3.77-6.58,1.87-.02,3.81,.31,5.61,.84,5.11,1.52,9.55,4.23,13.1,8.25,.92,1.05,1.73,2.27,2.32,3.53,1.42,3.05,.05,5.41-3.29,5.81-2.9,.35-5.64-.39-8.3-1.43-1.48-.58-2.89-1.34-4.34-2.01Z"/></g><g><path class="q" d="M255.04,66.2l8.39,14.54c0,.13-.02,.27,.02,.4,1.45,5.36-.18,9.46-4.91,12.2-28.28,16.34-56.57,32.67-84.87,48.98-.7,.4-1.56,.66-2.37,.73-7.46,.62-14.94,1.1-22.39,1.82-2.8,.27-5.17-.17-7.19-2.16l-1.2-2.08c-.69-2.74,.1-5.02,1.74-7.3,4.28-5.98,8.34-12.11,12.56-18.14,.61-.87,1.47-1.68,2.39-2.21,21.96-12.72,43.94-25.41,65.92-38.1,6.23-3.59,12.45-7.18,18.67-10.78,2.89-1.68,5.95-2.21,9.04-.81,1.53,.69,2.81,1.93,4.21,2.92Zm-76.36,39.61l12.26,21.23c.42-.21,.74-.35,1.04-.52,12.57-7.25,25.13-14.52,37.71-21.74,1.03-.59,.97-1.1,.46-1.98-3.64-6.3-7.24-12.62-10.86-18.93-.21-.37-.47-.72-.72-1.09l-39.89,23.03Zm-21.64,14.11c-.31,.4-.56,.69-.78,1.01-3.58,5.23-7.15,10.47-10.75,15.69-.61,.89-1.05,1.73-.4,2.81,.61,1.02,1.52,1.05,2.55,.97,6.27-.51,12.55-1,18.82-1.5,.43-.03,.85-.09,1.43-.16l-10.86-18.82Zm83.77-49.97l12.27,21.26c1.51-.87,3-1.58,4.32-2.53,2.18-1.56,2.74-4.45,1.42-6.77-2.32-4.09-4.66-8.16-7.02-12.23-1.34-2.32-3.92-3.35-6.39-2.34-1.61,.66-3.06,1.72-4.61,2.61Zm-80.32,46.36l12.24,21.19,7.21-4.16-12.24-21.19-7.21,4.16Zm81.21-18.6l7.19-4.15-12.23-21.19-7.19,4.15,12.23,21.19Z"/><path class="i" d="M178.68,105.81l39.89-23.03c.24,.37,.5,.71,.72,1.09,3.62,6.31,7.22,12.63,10.86,18.93,.51,.89,.57,1.39-.46,1.98-12.58,7.22-25.14,14.49-37.71,21.74-.3,.17-.62,.31-1.04,.52l-12.26-21.23Zm29.35,4.94c1.31-.91,2.67-1.75,3.91-2.75,2.23-1.78,4.24-3.79,5.39-6.47,1.32-3.09-.04-5.46-3.39-5.75-1.39-.12-2.85-.04-4.22,.24-5.26,1.06-9.82,3.56-13.69,7.22-1.36,1.29-2.62,2.81-3.54,4.44-2.06,3.65-.41,6.4,3.81,6.56,.84,.03,1.69-.03,2.52-.16,3.29-.49,6.32-1.71,9.22-3.32Z"/><path class="i" d="M157.04,119.92l10.86,18.82c-.57,.06-1,.13-1.43,.16-6.27,.5-12.55,.99-18.82,1.5-1.02,.08-1.93,.05-2.55-.97-.65-1.07-.21-1.92,.4-2.81,3.59-5.22,7.16-10.46,10.75-15.69,.22-.32,.48-.62,.78-1.01Z"/><path class="i" d="M240.81,69.95c1.55-.89,3-1.95,4.61-2.61,2.47-1.01,5.04,.03,6.39,2.34,2.36,4.07,4.7,8.14,7.02,12.23,1.31,2.31,.76,5.2-1.42,6.77-1.32,.95-2.81,1.66-4.32,2.53l-12.27-21.26Z"/><path class="i" d="M160.49,116.32l7.21-4.16,12.24,21.19-7.21,4.16-12.24-21.19Z"/><path class="i" d="M241.69,97.72l-12.23-21.19,7.19-4.15,12.23,21.19-7.19,4.15Z"/><path class="m" d="M208.03,110.75c-2.9,1.61-5.93,2.83-9.22,3.32-.83,.12-1.68,.19-2.52,.16-4.22-.16-5.87-2.9-3.81-6.56,.92-1.63,2.17-3.15,3.54-4.44,3.88-3.66,8.44-6.16,13.69-7.22,1.37-.28,2.83-.37,4.22-.24,3.35,.3,4.71,2.66,3.39,5.75-1.14,2.69-3.16,4.69-5.39,6.47-1.24,.99-2.6,1.84-3.91,2.75Z"/></g></g></g><g id="d"><g><path class="r" d="M389.16,174.14c-7.79,9.52-19.9,14.88-34.1,14.88-26.48,0-44.48-17.65-44.48-43.44s18-43.62,44.48-43.62c12.46,0,23.37,4.15,31.67,12.29,1.73,1.73,2.6,3.98,2.6,6.4,0,5.37-3.46,9-8.83,9-2.25,0-4.5-.87-6.23-2.42-5.19-5.02-11.6-7.79-19.21-7.79-14.89,0-25.1,10.56-25.1,26.14s10.21,25.96,25.1,25.96c8.31,0,15.4-2.94,19.73-8.48,1.73-2.08,4.15-3.46,7.1-3.46,5.54,0,9.17,3.63,9.17,9,0,2.08-.69,3.98-1.9,5.54Z"/><path class="r" d="M463.93,101.96c26.31,0,44.48,17.65,44.48,43.62s-18.17,43.44-44.48,43.44-44.48-17.65-44.48-43.44,18-43.62,44.48-43.62Zm0,69.58c15.06,0,25.1-10.56,25.1-25.96s-10.04-26.14-25.1-26.14-25.1,10.56-25.1,26.14,10.21,25.96,25.1,25.96Z"/><path class="r" d="M561.2,74.96v102.81c0,6.4-3.46,10.21-9.52,10.21s-9.52-3.81-9.52-10.21V74.96c0-6.4,3.63-10.21,9.52-10.21s9.52,3.81,9.52,10.21Z"/><path class="r" d="M639.43,101.96c26.31,0,44.48,17.65,44.48,43.62s-18.17,43.44-44.48,43.44-44.48-17.65-44.48-43.44,18-43.62,44.48-43.62Zm0,69.58c15.06,0,25.1-10.56,25.1-25.96s-10.04-26.14-25.1-26.14-25.1,10.56-25.1,26.14,10.21,25.96,25.1,25.96Z"/><path class="r" d="M772.53,112c0,5.88-3.81,9.52-9.52,9.52-16.62,0-26.31,8.83-26.31,29.08v27.17c0,6.4-3.46,10.21-9.52,10.21s-9.52-3.81-9.52-10.21V113.21c0-6.23,3.63-10.21,9.52-10.21s9.52,3.98,9.52,10.21v3.12h.35c5.19-9,14.02-13.85,25.96-13.85,5.71,0,9.52,3.63,9.52,9.52Z"/><path class="r" d="M861.89,167.61c-3.51,7.42-11.07,11.74-20.93,11.74-14.45,0-23.22-9.32-23.22-24.84v-58.73c0-2.43,1.21-3.91,3.51-3.91,2.16,0,3.38,1.48,3.38,3.91v17.69h30.38c2.16,0,3.51,1.21,3.51,3.24s-1.35,3.24-3.51,3.24h-30.38v34.7c0,11.48,6.35,18.23,16.74,18.23,7.16,0,12.02-3.38,14.58-8.51,.68-1.35,1.75-2.02,3.11-2.02,1.89,0,3.24,1.48,3.24,3.37,0,.68-.13,1.35-.4,1.89Z"/><path class="r" d="M948.29,141.96v32.81c0,2.3-1.35,3.78-3.51,3.78s-3.38-1.48-3.38-3.78v-32.27c0-15.93-7.69-24.17-22.68-24.17s-24.57,10.53-24.57,27v29.43c0,2.3-1.21,3.78-3.51,3.78-2.16,0-3.38-1.48-3.38-3.78V86.2c0-2.3,1.21-3.78,3.38-3.78,2.3,0,3.51,1.48,3.51,3.78v39.02h.27c4.86-8.51,13.77-13.37,25.65-13.37,18.36,0,28.22,10.53,28.22,30.11Z"/><path class="r" d="M1038.06,148.03h-55.62c.95,14.85,11.48,24.84,27.41,24.84,9.45,0,17.01-3.92,21.87-9.99,.67-.81,1.62-1.35,2.56-1.35,2.3,0,3.51,1.62,3.51,3.64,0,.81-.41,1.62-.95,2.3-5.94,7.29-15.39,11.88-27,11.88-20.66,0-34.56-13.64-34.56-33.75s13.91-33.75,33.89-33.75,33.08,13.5,33.08,32.13c0,2.43-1.75,4.05-4.18,4.05Zm-55.49-6.35h53.06c-1.62-14.04-12.02-23.36-26.46-23.36s-24.98,9.32-26.6,23.36Z"/><path class="r" d="M1215.2,116.5c0,2.6-.52,4.85-1.73,7.79l-22.15,53.14c-2.94,7.1-7.96,10.56-14.71,10.56s-11.94-3.46-14.71-10.56l-12.63-32.89h-.35l-12.46,32.89c-2.77,7.1-7.96,10.56-14.89,10.56s-11.94-3.46-14.88-10.56l-22.33-53.14c-1.21-3.12-1.56-5.02-1.56-7.44,0-8.48,5.88-14.37,14.37-14.37,6.75,0,11.42,3.12,13.67,9.52l11.94,35.31h.35l13.5-35.31c2.08-5.54,6.23-9.52,12.81-9.52,6.92,0,10.9,3.98,12.98,9.52l13.33,34.79h.35l11.77-34.79c2.08-6.06,6.92-9.52,13.15-9.52,8.31,0,14.19,5.71,14.19,14.02Z"/><path class="r" d="M1283.74,101.44c27.17,0,45.69,17.83,45.69,43.79s-18.52,43.79-45.69,43.79-45.69-17.83-45.69-43.79,18.52-43.79,45.69-43.79Zm0,60.92c9.52,0,15.92-6.92,15.92-17.14s-6.4-17.13-15.92-17.13-15.92,6.92-15.92,17.13,6.4,17.14,15.92,17.14Z"/><path class="r" d="M1423.76,116.5c0,9-5.88,14.54-14.37,14.54-12.98,0-20.42,4.33-20.42,19.56v21.98c0,9.52-5.54,15.4-14.54,15.4s-14.54-5.88-14.54-15.4v-54.69c0-9.52,5.54-15.4,14.54-15.4,7.44,0,12.64,3.98,14.02,10.9h.35c4.33-7.62,11.42-11.42,20.6-11.42,8.48,0,14.37,5.54,14.37,14.54Z"/><path class="r" d="M1478.8,80.16v92.43c0,9.52-5.54,15.4-14.54,15.4s-14.54-5.88-14.54-15.4V80.16c0-9.52,5.54-15.4,14.54-15.4s14.54,5.88,14.54,15.4Z"/><path class="r" d="M1599.95,80.16v92.43c0,9.52-5.54,15.4-14.54,15.4-6.75,0-11.25-3.29-13.33-8.65h-.35c-5.37,6.06-13.5,9.69-23.37,9.69-23.71,0-39.12-17.13-39.12-43.79s15.4-43.79,39.12-43.79c9.17,0,16.79,2.94,22.15,8.31h.35v-29.6c0-9.52,5.54-15.4,14.54-15.4s14.54,5.88,14.54,15.4Zm-29.08,65.08c0-9.87-6.92-17.13-16.27-17.13s-15.58,6.92-15.58,17.13,6.4,17.14,15.58,17.14,16.27-7.27,16.27-17.14Z"/></g></g></g></svg>